<svg id="Layer_1" data-name="Layer 1" xmlns="http://www.w3.org/2000/svg" viewBox="0 0 122.88 82.26"><title>measurement</title><path d="M122.88,39.45V79.56a2.7,2.7,0,0,1-.76,1.87l-.08.08a2.67,2.67,0,0,1-1.86.75H2.7A2.74,2.74,0,0,1,.83,81.5l-.12-.13A2.72,2.72,0,0,1,0,79.56V39.45a2.74,2.74,0,0,1,.76-1.87l.13-.12a2.72,2.72,0,0,1,1.81-.71H120.18a2.68,2.68,0,0,1,1.87.76l.07.07a2.68,2.68,0,0,1,.76,1.87ZM107.07,77.2V58.13h5.06V77.2h5.69V41.81H5.06V77.2h5.69V66.69h5.06V77.2h5.64V58.13h5.06V77.2h5.65V66.69h5.05V77.2h5.65V58.13h5V77.2h5.65V66.69h5V77.2h5.65V58.13h5.06V77.2H75V66.69H80V77.2h5.64V58.13h5.06V77.2h5.65V66.69h5V77.2ZM122.31,24a3.2,3.2,0,1,1-6.4-.08l.32-20.74a3.21,3.21,0,0,1,6.41.07L122.31,24ZM6.65,24a3.21,3.21,0,1,1-6.41-.08L.56,3.17A3.21,3.21,0,1,1,7,3.24L6.65,24Zm94.12.27a3.21,3.21,0,0,1-4.2-4.85l3-2.61H23.28l3,2.61a3.21,3.21,0,0,1-4.2,4.85L12.57,16a3.2,3.2,0,0,1-.33-4.52l.3-.3,9.27-8.26a3.22,3.22,0,1,1,4.28,4.8l-3,2.64H99.77l-3-2.64a3.22,3.22,0,0,1,4.28-4.8l9.28,8.26.29.3a3.2,3.2,0,0,1-.33,4.52l-9.54,8.26Z"/></svg>